<svg width="1600" height="1200" viewBox="0 0 1600 1200" xmlns="http://www.w3.org/2000/svg">
  <defs>
    <linearGradient id="merchGradient" x1="0%" y1="0%" x2="100%" y2="100%">
      <stop offset="0%" stop-color="#6d28d9" />
      <stop offset="40%" stop-color="#ec4899" />
      <stop offset="100%" stop-color="#f9a8d4" />
    </linearGradient>
    <radialGradient id="merchGlow" cx="0.7" cy="0.3" r="0.9">
      <stop offset="0" stop-color="#f472b6" stop-opacity="0.8" />
      <stop offset="1" stop-color="#581c87" stop-opacity="0" />
    </radialGradient>
    <pattern id="merchGrid" width="60" height="60" patternUnits="userSpaceOnUse">
      <rect x="0" y="0" width="60" height="60" fill="none" />
      <circle cx="10" cy="10" r="4" fill="#fde68a" opacity="0.26" />
      <circle cx="40" cy="25" r="3" fill="#a855f7" opacity="0.3" />
      <circle cx="25" cy="50" r="5" fill="#f9a8d4" opacity="0.28" />
    </pattern>
  </defs>
  <rect width="1600" height="1200" fill="#2e1065" />
  <rect width="1600" height="1200" fill="url(#merchGradient)" opacity="0.92" />
  <rect width="1600" height="1200" fill="url(#merchGrid)" />
  <circle cx="260" cy="280" r="420" fill="url(#merchGlow)" />
  <circle cx="1400" cy="940" r="460" fill="url(#merchGlow)" opacity="0.7" />
  <path d="M0 960 C320 840 640 1120 960 980 C1280 840 1440 1020 1600 900 L1600 1200 L0 1200 Z" fill="#f472b6" opacity="0.22" />
  <path d="M0 720 C260 620 520 820 820 720 C1120 620 1400 740 1600 640 L1600 1200 L0 1200 Z" fill="#c084fc" opacity="0.18" />
</svg>
