<svg width="1200" height="800" viewBox="0 0 1200 800" fill="none" xmlns="http://www.w3.org/2000/svg">
  <defs>
    <linearGradient id="bgGradient" x1="0" y1="0" x2="1" y2="1">
      <stop offset="0%" stop-color="#fef3c7" />
      <stop offset="50%" stop-color="#fde68a" />
      <stop offset="100%" stop-color="#fbbf24" />
    </linearGradient>
    <pattern id="weave" x="0" y="0" width="40" height="40" patternUnits="userSpaceOnUse">
      <rect x="0" y="0" width="40" height="40" fill="rgba(255,255,255,0.35)" />
      <path d="M0 10H40" stroke="#f97316" stroke-width="4" stroke-linecap="round" opacity="0.3" />
      <path d="M0 30H40" stroke="#f97316" stroke-width="4" stroke-linecap="round" opacity="0.3" />
      <path d="M10 0V40" stroke="#f97316" stroke-width="4" stroke-linecap="round" opacity="0.3" />
      <path d="M30 0V40" stroke="#f97316" stroke-width="4" stroke-linecap="round" opacity="0.3" />
    </pattern>
  </defs>
  <rect width="1200" height="800" fill="url(#bgGradient)" />
  <rect width="1200" height="800" fill="url(#weave)" opacity="0.45" />
  <path d="M0 520C160 560 320 640 480 640C640 640 800 560 960 520C1080 488 1160 492 1200 500V800H0V520Z" fill="#facc15" opacity="0.65" />
  <path d="M0 600C140 640 320 720 520 720C720 720 900 640 1080 600C1140 586 1180 586 1200 590V800H0V600Z" fill="#f97316" opacity="0.35" />
  <circle cx="220" cy="240" r="140" fill="#fcd34d" opacity="0.45" />
  <circle cx="960" cy="180" r="180" fill="#f59e0b" opacity="0.3" />
</svg>
